# xmcd
#
# Track frame offsets: 
#        150
#        6511
#        21535
#        33742
#        44959
#        61319
#        74248
#        76144
#        88399
#        100546
#        115750
#        130659
#        142109
#        160387
#        174139
#        188918
#
# Disc length: 2634 seconds
#
# Revision: 0
# Processed by: cddbd v1.5.2PL0 Copyright (c) Steve Scherf et al.
# Submitted via: ExactAudioCopy v0.99pb5
#
DISCID=ea0a4810
DTITLE=Rekami - Iskuja Vyön Alle
DYEAR=2010
DGENRE=Hip-Hop
TTITLE0=Alottelu
TTITLE1=Keskivertoräppäri
TTITLE2=DJ
TTITLE3=Pyhä Laurentius ja Pelonkerjuu
TTITLE4=VIP
TTITLE5=Iskuja Vyön Alle
TTITLE6=Hovimestari (Skit)
TTITLE7=Levee Elämä (feat. Are)
TTITLE8=Kaikki Punaselle
TTITLE9=Ei Tarvii Miettii
TTITLE10=V Niinku Verkosto
TTITLE11=Ruffi, Kaunis ja Rohkee (feat. Kriso)
TTITLE12=Pieni Tyttö
TTITLE13=Mikään Ei Ärsytä
TTITLE14=Totuus
TTITLE15=Bonusraita
EXTD=
EXTT0=
EXTT1=
EXTT2=
EXTT3=
EXTT4=
EXTT5=
EXTT6=
EXTT7=
EXTT8=
EXTT9=
EXTT10=
EXTT11=
EXTT12=
EXTT13=
EXTT14=
EXTT15=
PLAYORDER=
